<?xml version="1.0" standalone="no"?>
<!DOCTYPE svg PUBLIC "-//W3C//DTD SVG 20010904//EN"
 "http://www.w3.org/TR/2001/REC-SVG-20010904/DTD/svg10.dtd">
<svg version="1.0" xmlns="http://www.w3.org/2000/svg"
 width="229.000000pt" height="220.000000pt" viewBox="0 0 229.000000 220.000000"
 preserveAspectRatio="xMidYMid meet">

<g transform="translate(0.000000,220.000000) scale(0.100000,-0.100000)"
fill="#000000" stroke="none">
<path d="M1433 2174 c-22 -22 -24 -31 -19 -62 25 -130 15 -175 -64 -296 -53
-81 -78 -96 -115 -72 -44 29 -60 154 -29 219 23 48 9 91 -31 95 -47 6 -59 -42
-29 -114 11 -27 14 -52 9 -88 -8 -60 -18 -81 -50 -102 -21 -14 -30 -14 -55 -4
-31 13 -39 32 -57 130 -6 36 -13 46 -31 48 -18 3 -22 -1 -22 -25 0 -15 9 -48
20 -72 26 -56 26 -98 1 -106 -29 -9 -43 2 -88 64 -70 99 -77 118 -76 196 3 88
-1 100 -36 115 -23 9 -36 8 -65 -4 -33 -14 -36 -18 -36 -56 0 -36 6 -48 44
-85 52 -50 70 -82 85 -153 17 -84 15 -139 -8 -152 -31 -16 -50 -2 -97 72 -31
48 -50 68 -62 66 -30 -6 -23 -32 27 -101 54 -73 57 -100 14 -120 -20 -9 -31
-7 -61 9 -48 25 -112 89 -112 112 0 10 -11 29 -24 41 -29 27 -62 21 -78 -14
-15 -33 5 -62 50 -75 61 -17 123 -84 137 -147 6 -31 5 -33 -22 -33 -15 0 -48
9 -72 20 -24 11 -46 18 -49 16 -11 -12 10 -36 31 -36 16 0 34 -12 50 -34 l26
-33 -25 -12 c-33 -15 -50 -14 -141 5 -99 20 -143 43 -189 99 -40 47 -80 63
-128 51 -45 -11 -65 -111 -29 -148 22 -22 42 -24 118 -13 59 8 108 -6 191 -56
126 -76 155 -130 91 -169 -41 -25 -100 -25 -156 0 -71 33 -111 23 -111 -27 0
-35 39 -50 89 -33 70 23 162 -2 190 -51 13 -24 13 -29 -2 -52 -13 -20 -28 -27
-64 -32 -94 -12 -101 -15 -96 -34 4 -18 9 -18 61 -5 32 7 65 13 74 14 27 0 58
-37 58 -70 0 -24 -10 -38 -52 -70 -80 -64 -123 -82 -198 -84 -101 -3 -139 -40
-106 -105 14 -26 22 -31 52 -31 29 0 44 8 79 44 54 56 86 72 177 91 84 18 114
14 129 -19 16 -34 0 -57 -76 -111 -66 -48 -69 -52 -59 -79 10 -27 31 -18 101
44 70 62 81 67 114 50 27 -15 24 -41 -16 -120 -41 -81 -94 -136 -147 -152 -43
-13 -75 -49 -84 -96 -9 -44 31 -82 84 -82 60 0 81 23 92 99 10 73 38 120 108
178 57 48 77 56 102 43 46 -24 44 -45 -9 -142 -57 -101 -63 -134 -28 -147 33
-13 51 9 92 116 40 102 63 125 104 104 29 -16 36 -53 17 -89 -15 -29 -13 -62
4 -62 15 0 29 26 25 46 -3 11 6 32 23 51 l28 33 29 -30 c25 -26 30 -40 33 -95
3 -48 0 -71 -12 -90 -19 -29 -21 -76 -4 -93 7 -7 22 -12 35 -12 37 0 48 43 28
105 -13 42 -14 60 -4 105 11 50 45 100 69 100 27 0 47 -39 54 -105 8 -80 20
-107 42 -98 13 5 15 16 10 57 -20 154 -20 153 3 166 32 17 51 6 97 -52 69 -88
84 -124 84 -200 0 -57 4 -71 26 -98 22 -26 32 -30 53 -25 81 20 82 90 3 159
-43 37 -67 88 -83 178 -11 61 -11 71 6 101 25 47 44 39 83 -37 49 -94 57 -103
76 -87 18 15 10 36 -35 89 -37 41 -39 90 -6 128 l24 27 61 -37 c61 -37 93 -71
106 -112 4 -12 21 -28 38 -35 28 -11 32 -11 49 10 10 12 15 30 12 39 -9 26
-34 52 -50 52 -30 0 -74 33 -113 84 -44 59 -49 80 -21 95 24 13 160 -25 225
-63 44 -25 96 -87 96 -113 0 -18 41 -43 70 -43 43 0 90 57 90 110 0 10 -8 28
-18 40 -15 18 -30 22 -95 25 -63 3 -87 9 -127 32 -71 40 -159 114 -166 140
-11 40 3 46 83 38 61 -6 74 -4 71 7 -3 7 -20 14 -38 16 -46 5 -90 37 -90 67 0
31 20 41 100 48 90 8 156 -7 216 -48 28 -19 62 -35 77 -35 39 0 67 42 67 101
0 39 -4 51 -26 68 -35 27 -46 26 -102 -6 -56 -33 -132 -36 -227 -8 -64 18 -85
36 -85 71 0 33 24 46 97 51 103 6 113 10 113 38 0 21 -5 25 -30 25 -17 0 -60
-7 -96 -16 l-66 -17 -25 25 c-34 34 -25 59 40 107 87 65 128 81 205 81 59 0
72 3 90 23 25 26 27 48 11 80 -30 57 -74 51 -143 -18 -57 -56 -101 -76 -206
-90 -37 -5 -50 -3 -73 15 -49 38 -25 98 53 130 29 12 45 35 34 51 -9 15 -54
11 -54 -5 0 -17 -80 -66 -108 -66 -25 0 -68 34 -74 58 -8 31 16 72 86 150 70
77 78 98 47 126 -29 27 -51 9 -116 -95 -63 -99 -89 -118 -133 -97 -52 26 -62
54 -51 147 12 109 36 160 104 225 30 30 55 62 55 72 0 30 -29 65 -66 80 -48
20 -72 17 -101 -12z m-399 -526 c14 -23 -1 -48 -39 -67 -25 -12 -32 -12 -54 0
-35 20 -36 35 -7 64 30 30 82 31 100 3z m261 -38 c10 -16 -16 -41 -38 -38 -11
2 -25 11 -31 21 -9 14 -7 21 8 32 19 14 47 7 61 -15z m217 -111 c55 -39 53
-113 -3 -133 -59 -20 -150 62 -130 118 17 46 77 53 133 15z m-702 -27 c46 -37
20 -118 -46 -150 -32 -15 -38 -15 -62 -1 -52 29 -33 121 32 153 40 20 49 20
76 -2z m358 -48 c39 -44 24 -96 -35 -120 -31 -14 -38 -13 -71 3 -47 23 -63 63
-41 101 31 57 104 65 147 16z m530 -73 c8 -4 12 -19 10 -32 -2 -18 -9 -24 -28
-24 -28 0 -39 27 -20 50 14 17 20 18 38 6z m-1123 -176 c0 -23 -4 -30 -20 -30
-21 0 -31 25 -21 51 11 28 41 12 41 -21z m465 5 c39 -39 11 -110 -45 -110 -29
0 -65 35 -65 64 0 28 39 66 67 66 13 0 32 -9 43 -20z m293 6 c45 -19 68 -48
74 -94 17 -130 -166 -184 -222 -66 -29 61 -2 133 58 159 41 18 50 18 90 1z
m207 -37 c0 -12 -7 -19 -19 -19 -22 0 -34 23 -19 38 15 15 38 3 38 -19z m-742
9 c18 -18 14 -83 -6 -108 -23 -28 -59 -20 -68 16 -16 63 37 129 74 92z m941
-20 c14 -24 14 -30 -2 -63 -21 -44 -55 -45 -75 -3 -18 39 7 101 40 96 12 -2
29 -15 37 -30z m-195 -134 c19 -18 20 -37 5 -67 -23 -42 -42 -47 -64 -13 -12
18 -13 29 -5 52 17 45 39 54 64 28z m-499 -59 c31 -30 31 -52 3 -82 -31 -33
-90 -32 -117 3 -12 15 -21 33 -21 41 0 26 47 63 80 63 19 0 40 -9 55 -25z
m-359 -79 c28 -28 34 -41 34 -77 0 -48 -21 -79 -54 -79 -72 0 -125 121 -76
170 29 29 57 25 96 -14z m638 -22 c18 -7 22 -49 6 -59 -33 -20 -65 26 -38 53
14 14 12 14 32 6z m329 -66 c19 -25 19 -31 8 -70 -18 -58 -85 -124 -135 -133
-121 -23 -134 131 -17 211 50 34 115 31 144 -8z m-469 -52 c57 -24 60 -83 6
-111 -37 -19 -63 -19 -100 0 -38 20 -49 59 -24 87 35 38 68 45 118 24z m-274
-11 c10 -12 10 -18 0 -30 -27 -32 -71 -8 -56 30 3 8 14 15 24 15 11 0 25 -7
32 -15z m10 -160 c52 -27 48 -85 -7 -85 -57 0 -97 48 -67 81 21 23 36 24 74 4z
m398 -57 c18 -18 14 -56 -7 -68 -42 -22 -111 -3 -111 31 0 37 90 65 118 37z"/>
</g>
</svg>
